<svg xmlns="http://www.w3.org/2000/svg" viewBox="-60 -60 720 720" role="img" aria-label="Garage Conversion Studio Plan (2-Car) floor plan"><title>Garage Conversion Studio Plan (2-Car) floor plan</title><rect x="-60" y="-60" width="720" height="720" fill="#f7f5f0"/><polygon points="10,10 590,10 590,355 10,355" fill="#dcdcd8"/><polygon points="10,365 395,365 395,590 10,590" fill="#f0e2c8"/><polygon points="405,365 590,365 590,590 405,590" fill="#e2e8ea"/><g transform="translate(450 187) rotate(0)"><rect x="-100" y="-120" width="200" height="240" rx="6" fill="#c9b9a0" fill-opacity="0.45" stroke="#b09f86" stroke-width="2"/></g><g fill="#2f3437"><rect x="-10" y="-10" width="620" height="20"/><rect x="-5" y="355" width="610" height="10"/><rect x="-10" y="-10" width="20" height="620"/><rect x="590" y="-10" width="20" height="620"/><rect x="-10" y="590" width="620" height="20"/><rect x="395" y="355" width="10" height="250"/></g><rect x="210" y="-11" width="180" height="22" fill="#f7f5f0"/><g fill="none" stroke="#5b6166" stroke-width="3"><line x1="210" y1="0" x2="210" y2="100"/><path d="M310 0 A100 100 0 0 1 210 100" stroke-width="2" stroke-dasharray="6 5"/></g><rect x="-11" y="70" width="22" height="120" fill="#f7f5f0"/><g stroke="#6aa6c8" stroke-width="3"><line x1="-5" y1="70" x2="-5" y2="190"/><line x1="0" y1="70" x2="0" y2="190"/><line x1="5" y1="70" x2="5" y2="190"/></g><rect x="589" y="20" width="22" height="80" fill="#f7f5f0"/><g stroke="#6aa6c8" stroke-width="3"><line x1="595" y1="20" x2="595" y2="100"/><line x1="600" y1="20" x2="600" y2="100"/><line x1="605" y1="20" x2="605" y2="100"/></g><rect x="229" y="354" width="82" height="12" fill="#f7f5f0"/><g fill="none" stroke="#5b6166" stroke-width="3"><line x1="229" y1="360" x2="229" y2="442"/><path d="M311 360 A82 82 0 0 1 229 442" stroke-width="2" stroke-dasharray="6 5"/></g><rect x="-11" y="410" width="22" height="80" fill="#f7f5f0"/><g stroke="#6aa6c8" stroke-width="3"><line x1="-5" y1="410" x2="-5" y2="490"/><line x1="0" y1="410" x2="0" y2="490"/><line x1="5" y1="410" x2="5" y2="490"/></g><rect x="110" y="589" width="80" height="22" fill="#f7f5f0"/><g stroke="#6aa6c8" stroke-width="3"><line x1="110" y1="595" x2="190" y2="595"/><line x1="110" y1="600" x2="190" y2="600"/><line x1="110" y1="605" x2="190" y2="605"/></g><rect x="394" y="384" width="12" height="72" fill="#f7f5f0"/><g fill="none" stroke="#5b6166" stroke-width="3"><line x1="400" y1="384" x2="472" y2="384"/><path d="M400 456 A72 72 0 0 0 472 384" stroke-width="2" stroke-dasharray="6 5"/></g><rect x="470" y="354" width="60" height="12" fill="#f7f5f0"/><g stroke="#6aa6c8" stroke-width="3"><line x1="470" y1="357.5" x2="530" y2="357.5"/><line x1="470" y1="360" x2="530" y2="360"/><line x1="470" y1="362.5" x2="530" y2="362.5"/></g><g transform="translate(46 48) rotate(270)"><rect x="-38" y="-36" width="76" height="72" rx="4" fill="#d5d9dd" stroke="#6f6a60" stroke-width="2"/></g><g transform="translate(42 131.5) rotate(270)"><rect x="-45.5" y="-32" width="91" height="64" rx="4" fill="#d8c7a8" stroke="#6f6a60" stroke-width="2"/></g><g transform="translate(42 215) rotate(270)"><rect x="-38" y="-32" width="76" height="64" rx="4" fill="#d8c7a8" stroke="#6f6a60" stroke-width="2"/></g><g transform="translate(160 210) rotate(0)"><rect x="-80" y="-45" width="160" height="90" rx="4" fill="#8b6b4a" stroke="#6f6a60" stroke-width="2"/></g><g transform="translate(130 144) rotate(0)"><rect x="-21.5" y="-21" width="43" height="42" rx="4" fill="#d8c7a8" stroke="#6f6a60" stroke-width="2"/></g><g transform="translate(190 144) rotate(0)"><rect x="-21.5" y="-21" width="43" height="42" rx="4" fill="#d8c7a8" stroke="#6f6a60" stroke-width="2"/></g><g transform="translate(130 276) rotate(180)"><rect x="-21.5" y="-21" width="43" height="42" rx="4" fill="#d8c7a8" stroke="#6f6a60" stroke-width="2"/></g><g transform="translate(190 276) rotate(180)"><rect x="-21.5" y="-21" width="43" height="42" rx="4" fill="#d8c7a8" stroke="#6f6a60" stroke-width="2"/></g><g transform="translate(570 187) rotate(90)"><rect x="-70" y="-20" width="140" height="40" rx="4" fill="#d8c7a8" stroke="#6f6a60" stroke-width="2"/></g><g transform="translate(570 187) rotate(90)"><rect x="-55" y="-4" width="110" height="8" rx="4" fill="#1c1e22" stroke="#6f6a60" stroke-width="2"/></g><g transform="translate(400 187) rotate(270)"><rect x="-117" y="-39.5" width="234" height="79" rx="4" fill="#d8c7a8" stroke="#6f6a60" stroke-width="2"/></g><g transform="translate(470 187) rotate(270)"><rect x="-55" y="-30" width="110" height="60" rx="4" fill="#8a6a4b" stroke="#6f6a60" stroke-width="2"/></g><g transform="translate(105 445) rotate(270)"><rect x="-70" y="-95" width="140" height="190" rx="4" fill="#b9c4a8" stroke="#6f6a60" stroke-width="2"/></g><g transform="translate(30 547.5) rotate(270)"><rect x="-22.5" y="-20" width="45" height="40" rx="4" fill="#8a6a4b" stroke="#6f6a60" stroke-width="2"/></g><g transform="translate(365 530) rotate(90)"><rect x="-60" y="-30" width="120" height="60" rx="4" fill="#d8d0c0" stroke="#6f6a60" stroke-width="2"/></g><g transform="translate(497.5 552.5) rotate(180)"><rect x="-85" y="-37.5" width="170" height="75" rx="4" fill="#f2f2f2" stroke="#6f6a60" stroke-width="2"/></g><g transform="translate(556 445) rotate(90)"><rect x="-19" y="-34" width="38" height="68" rx="4" fill="#f2f2f2" stroke="#6f6a60" stroke-width="2"/></g><g transform="translate(535 390) rotate(0)"><rect x="-30" y="-25" width="60" height="50" rx="4" fill="#e9e4da" stroke="#6f6a60" stroke-width="2"/></g><g font-family="Inter, Helvetica, Arial, sans-serif" font-weight="600" fill="#3d4448" fill-opacity="0.85" stroke="#ffffff" stroke-opacity="0.8" stroke-width="3" stroke-linejoin="round" paint-order="stroke"><text x="300" y="38" text-anchor="middle" font-size="26">Living &amp; kitchen</text><text x="202.5" y="393" text-anchor="middle" font-size="26">Bedroom</text><text x="497.5" y="393" text-anchor="middle" font-size="20">Bath</text></g></svg>
